<svg width="47" height="48" viewBox="0 0 47 48" fill="none" xmlns="http://www.w3.org/2000/svg">
<path d="M31.352 12.389C32.084 13.121 33.27 13.123 34.002 12.389L36.61 9.781C37.341 9.049 37.339 7.863 36.61 7.13L30.027 0.549C29.297 -0.183 28.111 -0.183 27.379 0.549L24.77 3.157C24.04 3.889 24.04 5.075 24.77 5.805L31.352 12.389Z" fill="url(#paint0_linear_22728_7161)"/>
<path d="M15.766 28.2672C16.497 28.9962 17.683 28.9962 18.414 28.2672L21.023 25.6572C21.755 24.9272 21.755 23.7402 21.023 23.0082L14.44 16.4252C13.709 15.6952 12.523 15.6932 11.791 16.4252L9.18302 19.0332C8.45102 19.7652 8.45302 20.9512 9.18302 21.6832L15.766 28.2672Z" fill="url(#paint1_linear_22728_7161)"/>
<path d="M45.648 28.8931L43.001 26.2431C42.267 25.5131 41.084 25.5131 40.353 26.2431L39.192 27.4031L27.987 16.1961L30.414 13.7681L23.681 7.03711L21.253 9.46511L18.161 12.5551L15.787 14.9291L22.519 21.6621L24.896 19.2891L36.099 30.4941L35.051 31.5431C34.319 32.2721 34.317 33.4591 35.051 34.1911L37.698 36.8391C38.432 37.5731 39.617 37.5731 40.348 36.8391L45.647 31.5421C46.38 30.8091 46.38 29.6251 45.648 28.8931Z" fill="url(#paint2_linear_22728_7161)"/>
<path d="M26.077 36.9425C26.077 35.7435 25.105 34.7695 23.904 34.7695H6.936C5.736 34.7695 4.763 35.7435 4.763 36.9425V40.4695H0V47.8585H30.558V40.4695H26.077V36.9425Z" fill="url(#paint3_linear_22728_7161)"/>
<defs>
<linearGradient id="paint0_linear_22728_7161" x1="30.69" y1="0" x2="30.69" y2="12.9388" gradientUnits="userSpaceOnUse">
<stop stop-color="#EF8080"/>
<stop offset="1" stop-color="#F0145A"/>
</linearGradient>
<linearGradient id="paint1_linear_22728_7161" x1="15.1034" y1="15.877" x2="15.1034" y2="28.814" gradientUnits="userSpaceOnUse">
<stop stop-color="#EF8080"/>
<stop offset="1" stop-color="#F0145A"/>
</linearGradient>
<linearGradient id="paint2_linear_22728_7161" x1="30.9919" y1="7.03711" x2="30.9919" y2="37.3896" gradientUnits="userSpaceOnUse">
<stop stop-color="#EF8080"/>
<stop offset="1" stop-color="#F0145A"/>
</linearGradient>
<linearGradient id="paint3_linear_22728_7161" x1="15.279" y1="34.7695" x2="15.279" y2="47.8585" gradientUnits="userSpaceOnUse">
<stop stop-color="#EF8080"/>
<stop offset="1" stop-color="#F0145A"/>
</linearGradient>
</defs>
</svg>
