<svg width="128" height="20" viewBox="0 0 128 20" fill="none" xmlns="http://www.w3.org/2000/svg">
<path fill-rule="evenodd" clip-rule="evenodd" d="M9.97423 0L7.5708 7.31337H0L6.24891 11.9788L3.84548 19.4183L9.97423 14.7528L16.2231 19.4183L13.8197 11.9788L19.9485 7.31337H12.3777L9.97423 0Z" fill="black"/>
<path fill-rule="evenodd" clip-rule="evenodd" d="M36.2936 0L33.8902 7.31337H26.1992L32.328 11.9788L30.0447 19.4183L36.2936 14.7528L42.4224 19.4183L40.0189 11.9788L46.2678 7.31337H38.5769L36.2936 0Z" fill="black"/>
<path fill-rule="evenodd" clip-rule="evenodd" d="M63.5719 0L61.1685 7.31337H53.5977L59.8466 11.9788L57.4431 19.4183L63.5719 14.7528L69.8208 19.4183L67.4174 11.9788L73.5461 7.31337H65.9753L63.5719 0Z" fill="black"/>
<path fill-rule="evenodd" clip-rule="evenodd" d="M90.9703 0L88.6871 7.31337H80.9961L87.1248 11.9788L84.7214 19.4183L90.9703 14.7528L97.0991 19.4183L94.8158 11.9788L101.065 7.31337H93.3738L90.9703 0Z" fill="black"/>
<path fill-rule="evenodd" clip-rule="evenodd" d="M117.166 0L114.762 7.31337H107.191L113.32 11.9788L111.037 19.4183L117.166 14.7528L123.415 19.4183L121.011 11.9788L127.14 7.31337H119.449L117.166 0Z" fill="black"/>
</svg>
